<?xml version="1.0" encoding="UTF-8" standalone="no"?>
<svg
        xmlns:dc="http://purl.org/dc/elements/1.1/"
        xmlns:cc="http://creativecommons.org/ns#"
        xmlns:rdf="http://www.w3.org/1999/02/22-rdf-syntax-ns#"
        xmlns="http://www.w3.org/2000/svg"
        xmlns:sodipodi="http://sodipodi.sourceforge.net/DTD/sodipodi-0.dtd"
        xmlns:inkscape="http://www.inkscape.org/namespaces/inkscape"
        width="64"
        height="64"
        viewBox="0 0 16.933333 16.933333"
        version="1.1"
        id="svg8"
        inkscape:version="1.0.1 (3bc2e81, 2020-09-07)"
        sodipodi:docname="Auber.svg"
        inkscape:export-filename="/home/sam/Downloads/Auber.png"
        inkscape:export-xdpi="96"
        inkscape:export-ydpi="96">
  <defs
          id="defs2">
    <filter
            inkscape:collect="always"
            style="color-interpolation-filters:sRGB"
            id="filter200"
            x="-9.8157917e-07"
            width="1.000002"
            y="-1.5434477e-06"
            height="1.0000031">
      <feGaussianBlur
              inkscape:collect="always"
              stdDeviation="2.3806702e-06"
              id="feGaussianBlur202"/>
    </filter>
  </defs>
  <sodipodi:namedview
          id="base"
          pagecolor="#ffffff"
          bordercolor="#666666"
          borderopacity="1.0"
          inkscape:pageopacity="0.0"
          inkscape:pageshadow="2"
          inkscape:zoom="9.2476309"
          inkscape:cx="14.088745"
          inkscape:cy="39.616215"
          inkscape:document-units="px"
          inkscape:current-layer="layer3"
          inkscape:document-rotation="0"
          showgrid="true"
          units="px"
          inkscape:snap-grids="false"
          inkscape:snap-page="false"
          inkscape:window-width="1884"
          inkscape:window-height="991"
          inkscape:window-x="36"
          inkscape:window-y="207"
          inkscape:window-maximized="1"
          inkscape:snap-object-midpoints="true">
    <inkscape:grid
            type="xygrid"
            id="grid20"
            originx="8.4666665"
            originy="8.4666665"
            empspacing="8"/>
  </sodipodi:namedview>
  <metadata
          id="metadata5">
    <rdf:RDF>
      <cc:Work
              rdf:about="">
        <dc:format>image/svg+xml</dc:format>
        <dc:type
                rdf:resource="http://purl.org/dc/dcmitype/StillImage"/>
        <dc:title></dc:title>
      </cc:Work>
    </rdf:RDF>
  </metadata>
  <g
          inkscape:groupmode="layer"
          id="layer5"
          inkscape:label="hand">
    <path
            style="fill:#666666;stroke-width:0.443869"
            d="m 0.79126205,13.444542 c 0.045451,0.09173 0.1005626,0.179595 0.1363511,0.275163 0.00899,0.02394 -0.070375,0.04396 -0.073554,0.04694 -0.016364,0.01541 -0.00819,0.05482 -0.024521,0.07047 -0.012282,0.01184 -0.036777,0.01184 -0.049034,0.02353 -0.00338,0.003 -0.0490332,0.151741 -0.0490332,0.164438 0,0.0099 0.006516,0.06427 0,0.07047 -0.005784,0.0051 -0.0187368,-0.0051 -0.0245213,0 -0.012267,0.01168 0,0.09907 0,0.117446 0,0.09708 -0.0272729,0.605516 0,0.657767 0.0168284,0.03223 0.0722605,0.186705 0.0735533,0.187936 0.00578,0.0051 0.018737,-0.0051 0.024521,0 0.011569,0.01103 -0.011569,0.0359 0,0.04694 0.00578,0.0051 0.018737,-0.0051 0.024521,0 0.024183,0.02313 0.031163,0.07681 0.049033,0.09397 0.012282,0.01184 0.036777,0.01184 0.049033,0.02353 0.011569,0.01103 -0.011569,0.0359 0,0.04694 0.036777,0.03528 0.0858089,0.0587 0.12258585,0.09398 0.011569,0.01104 -0.011569,0.0359 0,0.04694 0.00578,0.0051 0.018737,-0.0051 0.024521,0 0.044946,0.04306 0.07764,0.09788 0.1225858,0.140918 0.020429,0.01953 0.053118,0.02741 0.073556,0.04694 0.00819,0.0082 0.016364,0.06265 0.024521,0.07047 0.028606,0.02741 0.069469,0.04306 0.098068,0.07047 0.00819,0.0082 0.016364,0.06266 0.024521,0.07047 0.012282,0.01184 0.036777,0.01184 0.049033,0.02352 0.036777,0.03528 0.061291,0.08224 0.098067,0.117476 0.011569,0.01103 0.037475,-0.01104 0.049034,0 0.012282,0.01184 0.012282,0.03528 0.024521,0.04695 0.00819,0.0082 0.065383,0.01541 0.073553,0.02353 0.00578,0.0051 -0.00578,0.01795 0,0.02353 0.021742,0.0208 0.068515,0.0096 0.098066,0.02353 0.035392,0.01695 0.062672,0.03 0.098066,0.04694 0.014828,0.0074 0.062221,-0.01092 0.073553,0 0.00578,0.0051 -0.00578,0.01795 0,0.02353 0.022353,0.02142 0.1855386,0 0.220656,0 0.016364,0 0.037475,0.01103 0.049033,0 0.00578,-0.0051 -0.00578,-0.01795 0,-0.02353 0.011569,-0.01103 0.037475,0.01103 0.049034,0 0.00578,-0.0051 -0.00578,-0.01795 0,-0.02352 0.051241,-0.04909 0.098066,-0.06222 0.098066,-0.164442 0,-0.01541 0.011569,-0.0359 0,-0.04695 -0.044945,-0.04306 -0.1021551,-0.07435 -0.1471072,-0.117447 -0.011569,-0.01103 0.011569,-0.0359 0,-0.04694 -0.020434,-0.01954 -0.05312,-0.02741 -0.073556,-0.04696 -0.011569,-0.01103 0.011569,-0.0359 0,-0.04694 -0.020433,-0.01954 -0.053118,-0.02741 -0.073553,-0.04694 -0.011569,-0.01103 0.011569,-0.0359 0,-0.04694 -0.020434,-0.01953 -0.053118,-0.02741 -0.073556,-0.04694 -0.022898,-0.02189 -0.026133,-0.0955 -0.049034,-0.117462 -0.050728,-0.04863 0.00195,0.07425 -0.049033,-0.02353 -0.018953,-0.03627 -0.02821,-0.07401 -0.049034,-0.09398 -0.00578,-0.0051 -0.018737,0.0051 -0.024521,0 -0.011569,-0.01103 0.011569,-0.0359 0,-0.04694 -0.012282,-0.01184 -0.036777,-0.01184 -0.049033,-0.02353 -2.236e-4,-2.13e-4 -0.048061,-0.21236 -0.024521,-0.234918 0.00578,-0.0051 0.018737,0.0051 0.024521,0 0.011569,-0.01103 -0.011569,-0.0359 0,-0.04694 0.012282,-0.01184 0.036777,-0.01184 0.049033,-0.02353 0.00578,-0.0051 -0.00578,-0.01795 0,-0.02353 0.015788,-0.01483 0.1050171,-0.02353 0.1471089,-0.02353 0.027232,0 0.1542862,-0.01662 0.171621,0 0.00578,0.0051 -0.00578,0.01795 0,0.02353 0.011569,0.01103 0.037475,-0.01103 0.049034,0 0.00578,0.0051 -0.00578,0.01795 0,0.02353 0.011569,0.01103 0.037475,-0.01103 0.049033,0 0.023441,0.02249 0.058315,0.06473 0.073553,0.09397 0.051017,0.09777 -0.00167,-0.0251 0.049033,0.02353 0.00819,0.0082 0.016363,0.06264 0.024521,0.07047 0.00578,0.0051 0.018737,-0.0051 0.024521,0 0.028606,0.02741 0.044945,0.06658 0.073553,0.09398 0.00394,0.0035 0.1518596,-0.0042 0.1716207,-0.02353 0.00578,-0.0051 -0.00578,-0.01795 0,-0.02353 0.028608,-0.02741 0.069469,-0.04306 0.098068,-0.07047 0.011569,-0.01103 -0.011569,-0.0359 0,-0.04695 0.012282,-0.01184 0.036777,-0.01184 0.049033,-0.02353 0.016364,-0.01541 -0.016364,-0.07832 0,-0.09398 0.00578,-0.0051 0.020867,0.0074 0.024521,0 0.00445,-0.0088 -0.01028,-0.08407 0,-0.09398 0.00578,-0.0051 0.018737,0.0051 0.024521,0 0.017334,-0.01662 0,-0.138342 0,-0.164442 0,-0.02612 -0.1076027,-0.244052 -0.1225858,-0.25841 -0.012282,-0.01184 -0.036777,-0.01184 -0.049033,-0.02353 -0.011569,-0.01104 0.011569,-0.0359 0,-0.04694 -0.012282,-0.01184 -0.036777,-0.01184 -0.049034,-0.02353 -0.011569,-0.01103 0.011569,-0.0359 0,-0.04694 -0.020436,-0.01954 -0.053118,-0.02741 -0.073556,-0.04694 -0.00819,-0.0082 -0.016364,-0.06263 -0.024521,-0.07047 -0.00578,-0.0051 -0.018737,0.0051 -0.024521,0 -0.044945,-0.04308 -0.07764,-0.09789 -0.1225859,-0.140948 -0.012282,-0.01184 -0.036777,-0.01184 -0.049033,-0.02353 -0.012282,-0.01184 -0.012282,-0.03524 -0.024521,-0.04694 -0.011569,-0.01103 -0.037475,0.01103 -0.049034,0 -0.020435,-0.01954 -0.028608,-0.05093 -0.049033,-0.07047 -0.011569,-0.01103 -0.037475,0.01103 -0.049034,0 -0.02043,-0.01954 -0.028606,-0.05091 -0.049033,-0.07047 -0.00819,-0.0082 -0.065382,-0.01541 -0.073553,-0.02353 -0.036964,-0.03545 -0.1225858,-0.170125 -0.1225858,-0.234915 0,-0.03859 -0.053549,-0.324555 -0.024521,-0.35238 0.00578,-0.0051 0.018737,0.0051 0.024521,0 0.016364,-0.01541 -0.016363,-0.07832 0,-0.09398 0.00578,-0.0051 0.018737,0.0051 0.024521,0 0.011569,-0.01103 -0.016342,-0.04651 0,-0.04694 0.056926,-0.0015 0.1131722,0.01243 0.1697581,0.01863"
            id="path218"/>
    <path
            style="fill:#666666;stroke-width:0.443865"
            d="m 16.108067,13.444542 c -0.04545,0.09173 -0.100578,0.179595 -0.13635,0.275163 -0.0089,0.02394 0.07037,0.04396 0.07356,0.04694 0.0164,0.01541 0.0082,0.05482 0.02452,0.07047 0.01228,0.01184 0.03677,0.01184 0.04904,0.02353 0.0035,0.003 0.04904,0.151741 0.04904,0.164438 0,0.0099 -0.0066,0.06427 0,0.07047 0.0058,0.0051 0.01874,-0.0051 0.02452,0 0.01228,0.01168 0,0.09907 0,0.117446 0,0.09708 0.02727,0.605516 0,0.657767 -0.01684,0.03223 -0.07226,0.186705 -0.07356,0.187936 -0.0058,0.0051 -0.01874,-0.0051 -0.02452,0 -0.0115,0.01103 0.0115,0.0359 0,0.04694 -0.0058,0.0051 -0.01874,-0.0051 -0.02452,0 -0.02417,0.02313 -0.03118,0.07681 -0.04904,0.09397 -0.01228,0.01184 -0.03677,0.01184 -0.04904,0.02353 -0.0115,0.01103 0.0115,0.0359 0,0.04694 -0.03677,0.03528 -0.08581,0.0587 -0.122585,0.09398 -0.0115,0.01104 0.0115,0.0359 0,0.04694 -0.0058,0.0051 -0.01874,-0.0051 -0.02452,0 -0.04495,0.04306 -0.07764,0.09788 -0.122585,0.140918 -0.02044,0.01953 -0.05312,0.02741 -0.07356,0.04694 -0.0082,0.0082 -0.0164,0.06265 -0.02452,0.07047 -0.02861,0.02741 -0.06947,0.04306 -0.09808,0.07047 -0.0082,0.0082 -0.0164,0.06266 -0.02452,0.07047 -0.01228,0.01184 -0.03677,0.01184 -0.04904,0.02352 -0.03677,0.03528 -0.06129,0.08224 -0.09808,0.117476 -0.0115,0.01103 -0.03747,-0.01104 -0.04904,0 -0.01228,0.01184 -0.01228,0.03528 -0.02452,0.04695 -0.0082,0.0082 -0.06538,0.01541 -0.07356,0.02353 -0.0058,0.0051 0.0058,0.01795 0,0.02353 -0.02174,0.0208 -0.06851,0.0096 -0.09804,0.02353 -0.03539,0.01695 -0.06267,0.03 -0.09805,0.04694 -0.01498,0.0074 -0.06223,-0.01092 -0.07356,0 -0.0058,0.0051 0.0058,0.01795 0,0.02353 -0.02235,0.02142 -0.185536,0 -0.220652,0 -0.0164,0 -0.03749,0.01103 -0.04904,0 -0.0058,-0.0051 0.0058,-0.01795 0,-0.02353 -0.0115,-0.01103 -0.03749,0.01103 -0.04904,0 -0.0058,-0.0051 0.0058,-0.01795 0,-0.02352 -0.05124,-0.04909 -0.09807,-0.06222 -0.09807,-0.164442 0,-0.01541 -0.0115,-0.0359 0,-0.04695 0.04495,-0.04306 0.102157,-0.07435 0.147104,-0.117447 0.0115,-0.01103 -0.0115,-0.0359 0,-0.04694 0.02044,-0.01954 0.05312,-0.02741 0.07356,-0.04696 0.0115,-0.01103 -0.0115,-0.0359 0,-0.04694 0.02044,-0.01954 0.05312,-0.02741 0.07356,-0.04694 0.0115,-0.01103 -0.0115,-0.0359 0,-0.04694 0.02042,-0.01953 0.05312,-0.02741 0.07356,-0.04694 0.02291,-0.02189 0.02614,-0.0955 0.04904,-0.117462 0.05074,-0.04863 -0.002,0.07425 0.04904,-0.02353 0.01894,-0.03627 0.0282,-0.07401 0.04904,-0.09398 0.0058,-0.0051 0.01873,0.0051 0.02452,0 0.0115,-0.01103 -0.0115,-0.0359 0,-0.04694 0.01228,-0.01184 0.03677,-0.01184 0.04904,-0.02353 2.25e-4,-2.13e-4 0.04806,-0.21236 0.02452,-0.234918 -0.0058,-0.0051 -0.01873,0.0051 -0.02452,0 -0.0115,-0.01103 0.0115,-0.0359 0,-0.04694 -0.01228,-0.01184 -0.03677,-0.01184 -0.04904,-0.02353 -0.0058,-0.0051 0.0058,-0.01795 0,-0.02353 -0.01574,-0.01483 -0.105015,-0.02353 -0.147104,-0.02353 -0.02723,0 -0.154289,-0.01662 -0.17162,0 -0.0058,0.0051 0.0058,0.01795 0,0.02353 -0.0115,0.01103 -0.03748,-0.01103 -0.04904,0 -0.0058,0.0051 0.0058,0.01795 0,0.02353 -0.0115,0.01103 -0.03747,-0.01103 -0.04904,0 -0.02344,0.02249 -0.0583,0.06473 -0.07356,0.09397 -0.05101,0.09777 0.0016,-0.0251 -0.04904,0.02353 -0.0082,0.0082 -0.0164,0.06264 -0.02452,0.07047 -0.0058,0.0051 -0.01874,-0.0051 -0.02452,0 -0.02861,0.02741 -0.04495,0.06658 -0.07356,0.09398 -0.0041,0.0035 -0.151853,-0.0042 -0.17162,-0.02353 -0.0058,-0.0051 0.0058,-0.01795 0,-0.02353 -0.02861,-0.02741 -0.06947,-0.04306 -0.09805,-0.07047 -0.0115,-0.01103 0.0115,-0.0359 0,-0.04695 -0.01228,-0.01184 -0.03677,-0.01184 -0.04904,-0.02353 -0.0164,-0.01541 0.0164,-0.07832 0,-0.09398 -0.0058,-0.0051 -0.02086,0.0074 -0.02452,0 -0.0045,-0.0088 0.01034,-0.08407 0,-0.09398 -0.0058,-0.0051 -0.01874,0.0051 -0.02452,0 -0.01733,-0.01662 0,-0.138342 0,-0.164442 0,-0.02612 0.107616,-0.244052 0.122584,-0.25841 0.01228,-0.01184 0.03677,-0.01184 0.04904,-0.02353 0.0115,-0.01104 -0.0115,-0.0359 0,-0.04694 0.01228,-0.01184 0.03677,-0.01184 0.04904,-0.02353 0.0115,-0.01103 -0.0115,-0.0359 0,-0.04694 0.02044,-0.01954 0.05312,-0.02741 0.07356,-0.04694 0.0082,-0.0082 0.0164,-0.06263 0.02452,-0.07047 0.0058,-0.0051 0.01873,0.0051 0.02452,0 0.04495,-0.04308 0.07764,-0.09789 0.122584,-0.140948 0.01228,-0.01184 0.03677,-0.01184 0.04904,-0.02353 0.01228,-0.01184 0.01228,-0.03524 0.02452,-0.04694 0.0115,-0.01103 0.03746,0.01103 0.04904,0 0.02042,-0.01954 0.02861,-0.05093 0.04904,-0.07047 0.0115,-0.01103 0.03746,0.01103 0.04904,0 0.02044,-0.01954 0.02861,-0.05091 0.04904,-0.07047 0.0082,-0.0082 0.06538,-0.01541 0.07356,-0.02353 0.03697,-0.03545 0.122586,-0.170125 0.122586,-0.234915 0,-0.03859 0.05355,-0.324555 0.02452,-0.35238 -0.0058,-0.0051 -0.01874,0.0051 -0.02452,0 -0.0164,-0.01541 0.0164,-0.07832 0,-0.09398 -0.0058,-0.0051 -0.01874,0.0051 -0.02452,0 -0.0115,-0.01103 0.0164,-0.04651 0,-0.04694 -0.05694,-0.0015 -0.113181,0.01243 -0.169757,0.01863"
            id="path218-7"/>
  </g>
  <g
          inkscape:groupmode="layer"
          id="layer4"
          inkscape:label="Layer 4">
    <ellipse
            style="display:inline;fill:#808080;stroke-width:0.396307"
            id="path206"
            cx="1.3267466"
            cy="10.900385"
            rx="1.1889216"
            ry="2.9723041"/>
    <ellipse
            style="display:inline;fill:#808080;stroke-width:0.396307"
            id="path206-7"
            cx="15.592994"
            cy="10.888758"
            rx="1.1889216"
            ry="2.9723041"/>
  </g>
  <g
          inkscape:label="Layer 1"
          inkscape:groupmode="layer"
          id="layer1"
          style="display:inline">
    <rect
            style="fill:#999999;stroke-width:0.485375"
            id="rect178"
            width="2.3778431"
            height="3.9630723"
            x="0.91982704"
            y="6.3324399"
            rx="0.47556865"/>
    <rect
            style="display:inline;fill:#999999;stroke-width:0.485375"
            id="rect178-5"
            width="2.3778424"
            height="3.9630716"
            x="13.601657"
            y="6.3324399"
            rx="0.47556847"/>
  </g>
  <g
          inkscape:groupmode="layer"
          id="layer2"
          inkscape:label="Layer 2"
          style="filter:url(#filter200)">
    <circle
            style="display:inline;fill:#b3b3b3;stroke-width:0.396307"
            id="path33"
            cx="8.4496622"
            cy="8.3139763"
            r="5.9446082"/>
  </g>
  <g
          inkscape:groupmode="layer"
          id="layer3"
          inkscape:label="Layer 3">
    <ellipse
            style="display:inline;fill:#000000;stroke-width:0.285693;filter:url(#filter200)"
            id="path45"
            cx="8.4666662"
            cy="10.319909"
            rx="2.9104166"
            ry="1.8509239"
            transform="matrix(1.497854,0,0,1.497854,-4.2321666,-4.3678547)"/>
  </g>
</svg>
