<?xml version="1.0" encoding="UTF-8" standalone="no"?>
<svg
        xmlns:dc="http://purl.org/dc/elements/1.1/"
        xmlns:cc="http://creativecommons.org/ns#"
        xmlns:rdf="http://www.w3.org/1999/02/22-rdf-syntax-ns#"
        xmlns:sodipodi="http://sodipodi.sourceforge.net/DTD/sodipodi-0.dtd"
        xmlns:inkscape="http://www.inkscape.org/namespaces/inkscape"
        xmlns="http://www.w3.org/2000/svg"
        width="512"
        height="512"
        viewBox="0 0 135.46666 135.46666"
        version="1.1"
        id="svg1563"
        sodipodi:docname="Tiles.svg"
        inkscape:export-filename="/home/sam/Projects/ENG1/Map/Tiles.png"
        inkscape:export-xdpi="96"
        inkscape:export-ydpi="96"
        inkscape:version="1.0.1 (3bc2e81, 2020-09-07)">
  <defs
          id="defs1557"/>
  <sodipodi:namedview
          id="base"
          pagecolor="#ffffff"
          bordercolor="#666666"
          borderopacity="1.0"
          inkscape:pageopacity="0.0"
          inkscape:pageshadow="2"
          inkscape:zoom="2"
          inkscape:cx="314.12436"
          inkscape:cy="241.73307"
          inkscape:document-units="px"
          inkscape:current-layer="layer2"
          inkscape:document-rotation="0"
          showgrid="true"
          units="px"
          inkscape:window-width="1884"
          inkscape:window-height="991"
          inkscape:window-x="1956"
          inkscape:window-y="27"
          inkscape:window-maximized="1"
          inkscape:snap-global="true">
    <inkscape:grid
            type="xygrid"
            id="grid1565"
            spacingx="8.4666662"
            spacingy="8.4666662"/>
  </sodipodi:namedview>
  <metadata
          id="metadata1560">
    <rdf:RDF>
      <cc:Work
              rdf:about="">
        <dc:format>image/svg+xml</dc:format>
        <dc:type
                rdf:resource="http://purl.org/dc/dcmitype/StillImage"/>
        <dc:title></dc:title>
      </cc:Work>
    </rdf:RDF>
  </metadata>
  <g
          inkscape:label="Layer 1"
          inkscape:groupmode="layer"
          id="layer1">
    <rect
            style="fill:#5c5c5c;stroke-width:0.264583"
            id="rect1567"
            width="16.933332"
            height="16.933332"
            x="0"
            y="0"/>
    <rect
            style="fill:#ff0000;stroke-width:0.264583"
            id="rect1579"
            width="16.933332"
            height="16.933332"
            x="33.866665"
            y="0"/>
    <rect
            style="fill:#ffffff;fill-opacity:1;paint-order:stroke markers fill;"
            id="rect2270"
            width="16.933332"
            height="16.933332"
            x="16.933332"
            y="-4.3237304e-08"/>
    <rect
            style="fill:#000000;fill-opacity:1;paint-order:stroke markers fill"
            id="rect2324"
            width="16.933332"
            height="16.933332"
            x="50.799992"
            y="33.866669"/>
    <path
            style="fill:#5c5c5c;fill-opacity:1;stroke-width:2"
            d="M 84.666659,16.933334 101.59999,5.6666671e-7 V 16.933334 H 84.666659"
            id="path2440"/>
    <path
            style="fill:#ffffff;fill-opacity:1"
            d="M 101.59999,33.866665 118.53332,16.933332 V 33.866665 H 101.59999"
            id="path2440-3"/>
    <path
            style="fill:#5c5c5c;fill-opacity:1"
            d="M 101.59999,33.866664 V 16.933332 h 16.93333 z"
            id="path2465"/>
    <path
            style="fill:#ffffff;fill-opacity:1;stroke-width:1"
            d="M 84.666658,16.933334 V 5.6666671e-7 h 16.933332 z"
            id="path2465-8"/>
    <path
            style="fill:none;stroke:#000000;stroke-width:0.264583px;stroke-linecap:butt;stroke-linejoin:miter;stroke-opacity:1"
            d="M 84.798951,16.933333 V 5.6666671e-7 v 0"
            id="path2492"/>
    <path
            style="fill:none;stroke:#000000;stroke-width:0.261328px;stroke-linecap:butt;stroke-linejoin:miter;stroke-opacity:1"
            d="M 84.771223,16.829394 C 101.49634,0.10456557 101.49634,0.10456557 101.49634,0.10456557"
            id="path2509"/>
    <path
            style="fill:none;stroke:#000000;stroke-width:0.261328px;stroke-linecap:butt;stroke-linejoin:miter;stroke-opacity:1"
            d="M 101.70455,33.762724 C 118.42967,17.037896 118.42967,17.037896 118.42967,17.037896"
            id="path2509-5"/>
    <path
            style="fill:none;stroke:#000000;stroke-width:0.264583px;stroke-linecap:butt;stroke-linejoin:miter;stroke-opacity:1"
            d="m 118.40103,33.866663 v -16.933331 0"
            id="path2492-9"/>
    <path
            style="fill:none;stroke:#000000;stroke-width:0.264583px;stroke-linecap:butt;stroke-linejoin:miter;stroke-opacity:1"
            d="m 101.59999,33.734373 c 16.93333,0 16.93333,0 16.93333,0 v 0"
            id="path2227-7-7"/>
    <path
            style="fill:#ffffff;fill-opacity:1;stroke-width:1"
            d="M 84.666656,16.933333 101.59999,33.866665 H 84.666656 V 16.933333"
            id="path2440-3-2"/>
    <path
            style="fill:#5c5c5c;fill-opacity:1;stroke-width:1"
            d="M 84.666657,16.933332 H 101.59999 V 33.866666 Z"
            id="path2465-1"/>
    <path
            style="fill:none;stroke:#000000;stroke-width:0.261328px;stroke-linecap:butt;stroke-linejoin:miter;stroke-opacity:1"
            d="m 84.771366,17.037751 c 16.724824,16.72512 16.724824,16.72512 16.724824,16.72512"
            id="path2509-5-9"/>
    <path
            style="fill:none;stroke:#000000;stroke-width:0.264583px;stroke-linecap:butt;stroke-linejoin:miter;stroke-opacity:1"
            d="m 84.666657,33.734375 h 16.933333 v 0"
            id="path2492-9-8"/>
    <path
            style="fill:none;stroke:#000000;stroke-width:0.264583px;stroke-linecap:butt;stroke-linejoin:miter;stroke-opacity:1"
            d="m 84.79895,16.933332 c 0,16.933332 0,16.933332 0,16.933332 v 0"
            id="path2227-7-7-8"/>
    <path
            style="fill:#ffffff;fill-opacity:1;stroke-width:1"
            d="M 118.53332,16.933333 101.59999,5.6666671e-7 h 16.93333 V 16.933333"
            id="path2440-3-4"/>
    <path
            style="fill:#5c5c5c;fill-opacity:1;stroke-width:1"
            d="M 118.53332,16.933332 H 101.59999 V -2.4333333e-6 Z"
            id="path2465-3"/>
    <path
            style="fill:none;stroke:#000000;stroke-width:0.261328px;stroke-linecap:butt;stroke-linejoin:miter;stroke-opacity:1"
            d="M 101.80849,0.20821157 C 118.53332,16.933332 118.53332,16.933332 118.53332,16.933332"
            id="path2509-5-2"/>
    <path
            style="fill:none;stroke:#000000;stroke-width:0.264583px;stroke-linecap:butt;stroke-linejoin:miter;stroke-opacity:1"
            d="m 118.53332,0.13229257 c -16.93333,0 -16.93333,0 -16.93333,0 v 0"
            id="path2227-7-7-0"/>
    <path
            style="fill:#5c5c5c;fill-opacity:1;stroke-width:2"
            d="M 50.799996,16.933334 67.733328,9.6666671e-7 V 16.933334 H 50.799996"
            id="path2440-4"/>
    <path
            style="fill:#000000;fill-opacity:1;stroke-width:1"
            d="M 67.733328,33.866665 84.666661,16.933332 V 33.866665 H 67.733328"
            id="path2440-3-1"/>
    <path
            style="fill:#5c5c5c;fill-opacity:1;stroke-width:1"
            d="M 67.733326,33.866665 V 16.933332 h 16.933332 z"
            id="path2465-7"/>
    <path
            style="fill:#000000;fill-opacity:1;stroke-width:1"
            d="M 50.799995,16.933334 V 9.6666671e-7 h 16.933334 z"
            id="path2465-8-3"/>
    <path
            style="fill:none;stroke:#000000;stroke-width:0.264583px;stroke-linecap:butt;stroke-linejoin:miter;stroke-opacity:1"
            d="M 50.932288,16.933333 V 9.6666671e-7 v 0"
            id="path2492-4"/>
    <path
            style="fill:none;stroke:#000000;stroke-width:0.261328px;stroke-linecap:butt;stroke-linejoin:miter;stroke-opacity:1"
            d="M 50.90456,16.829394 C 67.62968,0.10456607 67.62968,0.10456607 67.62968,0.10456607"
            id="path2509-3"/>
    <path
            style="fill:none;stroke:#000000;stroke-width:0.261328px;stroke-linecap:butt;stroke-linejoin:miter;stroke-opacity:1"
            d="M 67.837891,33.762723 C 84.56301,17.037896 84.56301,17.037896 84.56301,17.037896"
            id="path2509-5-4"/>
    <path
            style="fill:none;stroke:#000000;stroke-width:0.264583px;stroke-linecap:butt;stroke-linejoin:miter;stroke-opacity:1"
            d="m 84.534369,33.866662 v -16.93333 0"
            id="path2492-9-5"/>
    <path
            style="fill:none;stroke:#000000;stroke-width:0.264583px;stroke-linecap:butt;stroke-linejoin:miter;stroke-opacity:1"
            d="m 67.733326,33.734373 c 16.933332,0 16.933332,0 16.933332,0 v 0"
            id="path2227-7-7-5"/>
    <path
            style="fill:#000000;fill-opacity:1;stroke-width:1"
            d="M 50.799993,16.933333 67.733326,33.866665 H 50.799993 V 16.933333"
            id="path2440-3-2-6"/>
    <path
            style="fill:#5c5c5c;fill-opacity:1;stroke-width:1"
            d="M 50.799994,16.933332 H 67.733326 V 33.866667 Z"
            id="path2465-1-8"/>
    <path
            style="fill:none;stroke:#000000;stroke-width:0.261328px;stroke-linecap:butt;stroke-linejoin:miter;stroke-opacity:1"
            d="m 50.904703,17.037751 c 16.724828,16.72512 16.724828,16.72512 16.724828,16.72512"
            id="path2509-5-9-9"/>
    <path
            style="fill:none;stroke:#000000;stroke-width:0.264583px;stroke-linecap:butt;stroke-linejoin:miter;stroke-opacity:1"
            d="m 50.799994,33.734376 h 16.933332 v 0"
            id="path2492-9-8-8"/>
    <path
            style="fill:none;stroke:#000000;stroke-width:0.264583px;stroke-linecap:butt;stroke-linejoin:miter;stroke-opacity:1"
            d="m 118.66561,5.6666671e-7 c 0,16.93333343333329 0,16.93333343333329 0,16.93333343333329 v 0"
            id="path2227-7-7-8-8"/>
    <path
            style="fill:#000000;fill-opacity:1;stroke-width:1"
            d="M 84.666661,16.933333 67.733326,9.6666671e-7 H 84.666658 V 16.933333"
            id="path2440-3-4-2"/>
    <path
            style="fill:#5c5c5c;fill-opacity:1;stroke-width:1"
            d="M 84.666658,16.933332 H 67.733326 V -2.0333333e-6 Z"
            id="path2465-3-2"/>
    <path
            style="fill:none;stroke:#000000;stroke-width:0.261328px;stroke-linecap:butt;stroke-linejoin:miter;stroke-opacity:1"
            d="M 67.94183,0.20821197 C 84.666658,16.933332 84.666658,16.933332 84.666658,16.933332"
            id="path2509-5-2-7"/>
    <path
            style="fill:none;stroke:#000000;stroke-width:0.264583px;stroke-linecap:butt;stroke-linejoin:miter;stroke-opacity:1"
            d="M 84.534369,2.0666667e-6 V 16.933332 v 0"
            id="path2492-9-0-2"/>
    <path
            style="fill:none;stroke:#000000;stroke-width:0.264583px;stroke-linecap:butt;stroke-linejoin:miter;stroke-opacity:1"
            d="m 84.666658,0.13229307 c -16.933332,0 -16.933332,0 -16.933332,0 v 0"
            id="path2227-7-7-0-9"/>
    <path
            style="fill:none;stroke:#000000;stroke-width:0.264583px;stroke-linecap:butt;stroke-linejoin:miter;stroke-opacity:1"
            d="m 50.799995,0.1322915 c 16.933333,0 16.933333,0 16.933333,0 v 0"
            id="path2227-8"/>
    <path
            style="fill:none;stroke:#000000;stroke-width:0.264583px;stroke-linecap:butt;stroke-linejoin:miter;stroke-opacity:1"
            d="m 50.799995,0.13229207 c 16.933332,0 16.933332,0 16.933332,0 v 0"
            id="path2227-7-1"/>
    <rect
            style="fill:#000000;fill-opacity:1;stroke-width:1;paint-order:stroke markers fill"
            id="rect2324-1"
            width="16.933332"
            height="16.933332"
            x="67.733322"
            y="33.866669"/>
    <rect
            style="fill:#000000;fill-opacity:1;stroke-width:1;paint-order:stroke markers fill"
            id="rect2324-1-1"
            width="16.933332"
            height="16.933332"
            x="50.799995"
            y="50.799995"/>
    <rect
            style="fill:#000000;fill-opacity:1;stroke-width:1;paint-order:stroke markers fill"
            id="rect2324-1-1-2"
            width="16.933332"
            height="16.933332"
            x="67.73333"
            y="50.799995"/>
    <rect
            style="fill:#000000;fill-opacity:1;stroke-width:1;paint-order:stroke markers fill"
            id="rect2324-1-1-2-9"
            width="16.933332"
            height="16.933332"
            x="50.799999"
            y="67.733322"/>
    <rect
            style="fill:#000000;fill-opacity:1;stroke-width:1;paint-order:stroke markers fill"
            id="rect2324-1-1-2-9-0"
            width="16.933332"
            height="16.933332"
            x="67.73333"
            y="67.733322"/>
    <rect
            style="fill:#000000;fill-opacity:1;stroke-width:1;paint-order:stroke markers fill"
            id="rect2324-1-1-2-9-6"
            width="16.933332"
            height="16.933332"
            x="84.666656"
            y="67.733322"/>
    <rect
            style="fill:#000000;fill-opacity:1;stroke-width:1;paint-order:stroke markers fill"
            id="rect2324-1-1-2-9-4"
            width="16.933332"
            height="16.933332"
            x="84.666656"
            y="50.799995"/>
    <rect
            style="fill:#000000;fill-opacity:1;stroke-width:1;paint-order:stroke markers fill"
            id="rect2324-1-1-2-9-6-7"
            width="16.933332"
            height="16.933332"
            x="101.59999"
            y="67.733322"/>
    <rect
            style="fill:#000000;fill-opacity:1;stroke-width:1;paint-order:stroke markers fill"
            id="rect2324-1-1-2-9-4-8"
            width="16.933332"
            height="16.933332"
            x="101.59999"
            y="50.799988"/>
    <rect
            style="fill:#000000;fill-opacity:1;stroke-width:1;paint-order:stroke markers fill"
            id="rect2324-8"
            width="16.933332"
            height="16.933332"
            x="84.666649"
            y="33.866661"/>
    <rect
            style="fill:#000000;fill-opacity:1;stroke-width:1;paint-order:stroke markers fill"
            id="rect2324-1-4"
            width="16.933332"
            height="16.933332"
            x="101.59998"
            y="33.866661"/>
    <rect
            style="fill:#000000;fill-opacity:1;stroke-width:1;paint-order:stroke markers fill"
            id="rect2324-1-1-2-9-1"
            width="16.933332"
            height="16.933332"
            x="50.800003"
            y="84.666649"/>
    <rect
            style="fill:#000000;fill-opacity:1;stroke-width:1;paint-order:stroke markers fill"
            id="rect2324-1-1-2-9-0-5"
            width="16.933332"
            height="16.933332"
            x="67.733337"
            y="84.666649"/>
    <rect
            style="fill:#000000;fill-opacity:1;stroke-width:1;paint-order:stroke markers fill"
            id="rect2324-1-1-2-9-6-0"
            width="16.933332"
            height="16.933332"
            x="84.666656"
            y="84.666649"/>
    <rect
            style="fill:#000000;fill-opacity:1;stroke-width:1;paint-order:stroke markers fill"
            id="rect2324-1-1-2-9-6-7-7"
            width="16.933332"
            height="16.933332"
            x="101.59999"
            y="84.666649"/>
  </g>
  <g
          inkscape:groupmode="layer"
          id="layer2"
          inkscape:label="Layer 2">
    <path
            style="fill:none;stroke:#000000;stroke-width:0.264583px;stroke-linecap:butt;stroke-linejoin:miter;stroke-opacity:1"
            d="m 16.933332,16.801041 c 16.933332,0 16.933332,0 16.933332,0 v 0"
            id="path2227"/>
    <path
            style="fill:none;stroke:#000000;stroke-width:0.264583px;stroke-linecap:butt;stroke-linejoin:miter;stroke-opacity:1"
            d="m 16.933332,0.1322915 c 16.933332,0 16.933332,0 16.933332,0 v 0"
            id="path2227-4"/>
    <path
            style="fill:none;stroke:#000000;stroke-width:0.264583px;stroke-linecap:butt;stroke-linejoin:miter;stroke-opacity:1"
            d="M 17.065625,16.933332 C 17.065625,0 17.065625,0 17.065625,0 v 0"
            id="path2248"/>
    <path
            style="fill:none;stroke:#000000;stroke-width:0.264583px;stroke-linecap:butt;stroke-linejoin:miter;stroke-opacity:1"
            d="M 33.734375,16.933332 C 33.734375,0 33.734375,0 33.734375,0 v 0"
            id="path2248-5"/>
    <path
            style="fill:none;stroke:#000000;stroke-width:0.264583px;stroke-linecap:butt;stroke-linejoin:miter;stroke-opacity:1"
            d="m 25.267709,16.933332 c 0,-16.933331989583336 0,-16.933331989583336 0,-16.933331989583336 v 0"
            id="path2248-5-0"/>
    <path
            style="fill:none;stroke:#000000;stroke-width:0.264583px;stroke-linecap:butt;stroke-linejoin:miter;stroke-opacity:1"
            d="m 16.933332,8.5989577 c 16.933332,0 16.933332,0 16.933332,0 v 0"
            id="path2227-4-5"/>
    <path
            style="fill:none;stroke:#000000;stroke-width:0.264583px;stroke-linecap:butt;stroke-linejoin:miter;stroke-opacity:1"
            d="m 84.666658,0.1322915 c 16.933332,0 16.933332,0 16.933332,0 v 0"
            id="path2227-7"/>
    <path
            sodipodi:type="star"
            style="fill:#ffd42a;fill-opacity:1;stroke-width:0.264583;paint-order:stroke markers fill"
            id="path2334-7-1"
            sodipodi:sides="5"
            sodipodi:cx="-12.699999"
            sodipodi:cy="25.4"
            sodipodi:r1="8.4666662"
            sodipodi:r2="4.2333331"
            sodipodi:arg1="0"
            sodipodi:arg2="0.62831853"
            inkscape:flatsided="false"
            inkscape:rounded="0"
            inkscape:randomized="0"
            d="m -4.2333326,25.4 -5.0418278,2.48829 -0.8084946,5.563988 -3.924516,-4.026139 -5.541505,0.950442 2.616344,-4.976581 -2.616344,-4.976582 5.541505,0.950443 3.924516,-4.026139 0.8084946,5.563987 z"
            inkscape:transform-center-x="-0.052786855"
            transform="matrix(0.06528974,0,0,0.06209423,9.743059,41.065152)"/>
    <path
            sodipodi:type="star"
            style="fill:#ffd42a;fill-opacity:1;stroke-width:0.264583;paint-order:stroke markers fill"
            id="path2334-7-1-5"
            sodipodi:sides="5"
            sodipodi:cx="-12.699999"
            sodipodi:cy="25.4"
            sodipodi:r1="8.4666662"
            sodipodi:r2="4.2333331"
            sodipodi:arg1="0"
            sodipodi:arg2="0.62831853"
            inkscape:flatsided="false"
            inkscape:rounded="0"
            inkscape:randomized="0"
            d="m -4.2333326,25.4 -5.0418278,2.48829 -0.8084946,5.563988 -3.924516,-4.026139 -5.541505,0.950442 2.616344,-4.976581 -2.616344,-4.976582 5.541505,0.950443 3.924516,-4.026139 0.8084946,5.563987 z"
            inkscape:transform-center-x="-0.052786855"
            transform="matrix(0.06528974,0,0,0.06209423,64.529318,83.703886)"/>
    <path
            sodipodi:type="star"
            style="fill:#ffd42a;fill-opacity:1;stroke-width:0.264583;paint-order:stroke markers fill"
            id="path2334-7-1-4"
            sodipodi:sides="5"
            sodipodi:cx="-12.699999"
            sodipodi:cy="25.4"
            sodipodi:r1="8.4666662"
            sodipodi:r2="4.2333331"
            sodipodi:arg1="0"
            sodipodi:arg2="0.62831853"
            inkscape:flatsided="false"
            inkscape:rounded="0"
            inkscape:randomized="0"
            d="m -4.2333326,25.4 -5.0418278,2.48829 -0.8084946,5.563988 -3.924516,-4.026139 -5.541505,0.950442 2.616344,-4.976581 -2.616344,-4.976582 5.541505,0.950443 3.924516,-4.026139 0.8084946,5.563987 z"
            inkscape:transform-center-x="-0.052786855"
            transform="matrix(0.06528974,0,0,0.06209423,59.92502,41.256136)"/>
    <path
            sodipodi:type="star"
            style="fill:#ffd42a;fill-opacity:1;stroke-width:0.264583;paint-order:stroke markers fill"
            id="path2334-7-1-0"
            sodipodi:sides="5"
            sodipodi:cx="-12.699999"
            sodipodi:cy="25.4"
            sodipodi:r1="8.4666662"
            sodipodi:r2="4.2333331"
            sodipodi:arg1="0"
            sodipodi:arg2="0.62831853"
            inkscape:flatsided="false"
            inkscape:rounded="0"
            inkscape:randomized="0"
            d="m -4.2333326,25.4 -5.0418278,2.48829 -0.8084946,5.563988 -3.924516,-4.026139 -5.541505,0.950442 2.616344,-4.976581 -2.616344,-4.976582 5.541505,0.950443 3.924516,-4.026139 0.8084946,5.563987 z"
            inkscape:transform-center-x="-0.052786855"
            transform="matrix(0.06528974,0,0,0.06209423,69.624288,42.95793)"/>
    <path
            sodipodi:type="star"
            style="fill:#ffd42a;fill-opacity:1;stroke-width:0.264583;paint-order:stroke markers fill"
            id="path2334-7-1-6"
            sodipodi:sides="5"
            sodipodi:cx="-12.699999"
            sodipodi:cy="25.4"
            sodipodi:r1="8.4666662"
            sodipodi:r2="4.2333331"
            sodipodi:arg1="0"
            sodipodi:arg2="0.62831853"
            inkscape:flatsided="false"
            inkscape:rounded="0"
            inkscape:randomized="0"
            d="m -4.2333326,25.4 -5.0418278,2.48829 -0.8084946,5.563988 -3.924516,-4.026139 -5.541505,0.950442 2.616344,-4.976581 -2.616344,-4.976582 5.541505,0.950443 3.924516,-4.026139 0.8084946,5.563987 z"
            inkscape:transform-center-x="-0.052786855"
            transform="matrix(0.06528974,0,0,0.06209423,75.176123,76.639267)"/>
    <path
            sodipodi:type="star"
            style="fill:#ffd42a;fill-opacity:1;stroke-width:0.264583;paint-order:stroke markers fill"
            id="path2334-7-1-40"
            sodipodi:sides="5"
            sodipodi:cx="-12.699999"
            sodipodi:cy="25.4"
            sodipodi:r1="8.4666662"
            sodipodi:r2="4.2333331"
            sodipodi:arg1="0"
            sodipodi:arg2="0.62831853"
            inkscape:flatsided="false"
            inkscape:rounded="0"
            inkscape:randomized="0"
            d="m -4.2333326,25.4 -5.0418278,2.48829 -0.8084946,5.563988 -3.924516,-4.026139 -5.541505,0.950442 2.616344,-4.976581 -2.616344,-4.976582 5.541505,0.950443 3.924516,-4.026139 0.8084946,5.563987 z"
            inkscape:transform-center-x="-0.052786855"
            transform="matrix(0.06528974,0,0,0.06209423,110.72501,41.256136)"/>
    <path
            sodipodi:type="star"
            style="fill:#ffd42a;fill-opacity:1;stroke-width:0.264583;paint-order:stroke markers fill"
            id="path2334-7-1-06"
            sodipodi:sides="5"
            sodipodi:cx="-12.699999"
            sodipodi:cy="25.4"
            sodipodi:r1="8.4666662"
            sodipodi:r2="4.2333331"
            sodipodi:arg1="0"
            sodipodi:arg2="0.62831853"
            inkscape:flatsided="false"
            inkscape:rounded="0"
            inkscape:randomized="0"
            d="m -4.2333326,25.4 -5.0418278,2.48829 -0.8084946,5.563988 -3.924516,-4.026139 -5.541505,0.950442 2.616344,-4.976581 -2.616344,-4.976582 5.541505,0.950443 3.924516,-4.026139 0.8084946,5.563987 z"
            inkscape:transform-center-x="-0.052786855"
            transform="matrix(0.06528974,0,0,0.06209423,110.94726,74.274945)"/>
    <path
            sodipodi:type="star"
            style="fill:#ffd42a;fill-opacity:1;stroke-width:0.264583;paint-order:stroke markers fill"
            id="path2334-7-1-7"
            sodipodi:sides="5"
            sodipodi:cx="-12.699999"
            sodipodi:cy="25.4"
            sodipodi:r1="8.4666662"
            sodipodi:r2="4.2333331"
            sodipodi:arg1="0"
            sodipodi:arg2="0.62831853"
            inkscape:flatsided="false"
            inkscape:rounded="0"
            inkscape:randomized="0"
            d="m -4.2333326,25.4 -5.0418278,2.48829 -0.8084946,5.563988 -3.924516,-4.026139 -5.541505,0.950442 2.616344,-4.976581 -2.616344,-4.976582 5.541505,0.950443 3.924516,-4.026139 0.8084946,5.563987 z"
            inkscape:transform-center-x="-0.052786855"
            transform="matrix(0.06528974,0,0,0.06209423,102.483,82.035485)"/>
    <path
            sodipodi:type="star"
            style="fill:#ffd42a;fill-opacity:1;stroke-width:0.264583;paint-order:stroke markers fill"
            id="path2334-7-1-27"
            sodipodi:sides="5"
            sodipodi:cx="-12.699999"
            sodipodi:cy="25.4"
            sodipodi:r1="8.4666662"
            sodipodi:r2="4.2333331"
            sodipodi:arg1="0"
            sodipodi:arg2="0.62831853"
            inkscape:flatsided="false"
            inkscape:rounded="0"
            inkscape:randomized="0"
            d="m -4.2333326,25.4 -5.0418278,2.48829 -0.8084946,5.563988 -3.924516,-4.026139 -5.541505,0.950442 2.616344,-4.976581 -2.616344,-4.976582 5.541505,0.950443 3.924516,-4.026139 0.8084946,5.563987 z"
            inkscape:transform-center-x="-0.052786855"
            transform="matrix(0.06528974,0,0,0.06209423,94.682629,73.63676)"/>
    <path
            sodipodi:type="star"
            style="fill:#ffd42a;fill-opacity:1;stroke-width:0.264583;paint-order:stroke markers fill"
            id="path2334-7-1-75"
            sodipodi:sides="5"
            sodipodi:cx="-12.699999"
            sodipodi:cy="25.4"
            sodipodi:r1="8.4666662"
            sodipodi:r2="4.2333331"
            sodipodi:arg1="0"
            sodipodi:arg2="0.62831853"
            inkscape:flatsided="false"
            inkscape:rounded="0"
            inkscape:randomized="0"
            d="m -4.2333326,25.4 -5.0418278,2.48829 -0.8084946,5.563988 -3.924516,-4.026139 -5.541505,0.950442 2.616344,-4.976581 -2.616344,-4.976582 5.541505,0.950443 3.924516,-4.026139 0.8084946,5.563987 z"
            inkscape:transform-center-x="-0.052786855"
            transform="matrix(0.06528974,0,0,0.06209423,102.6398,65.735548)"/>
    <path
            sodipodi:type="star"
            style="fill:#ffd42a;fill-opacity:1;stroke-width:0.264583;paint-order:stroke markers fill"
            id="path2334-7-1-8"
            sodipodi:sides="5"
            sodipodi:cx="-12.699999"
            sodipodi:cy="25.4"
            sodipodi:r1="8.4666662"
            sodipodi:r2="4.2333331"
            sodipodi:arg1="0"
            sodipodi:arg2="0.62831853"
            inkscape:flatsided="false"
            inkscape:rounded="0"
            inkscape:randomized="0"
            d="m -4.2333326,25.4 -5.0418278,2.48829 -0.8084946,5.563988 -3.924516,-4.026139 -5.541505,0.950442 2.616344,-4.976581 -2.616344,-4.976582 5.541505,0.950443 3.924516,-4.026139 0.8084946,5.563987 z"
            inkscape:transform-center-x="-0.052786855"
            transform="matrix(0.06528974,0,0,0.06209423,88.995096,79.874822)"/>
    <path
            sodipodi:type="star"
            style="fill:#ffd42a;fill-opacity:1;stroke-width:0.264583;paint-order:stroke markers fill"
            id="path2334-7-1-9"
            sodipodi:sides="5"
            sodipodi:cx="-12.699999"
            sodipodi:cy="25.4"
            sodipodi:r1="8.4666662"
            sodipodi:r2="4.2333331"
            sodipodi:arg1="0"
            sodipodi:arg2="0.62831853"
            inkscape:flatsided="false"
            inkscape:rounded="0"
            inkscape:randomized="0"
            d="m -4.2333326,25.4 -5.0418278,2.48829 -0.8084946,5.563988 -3.924516,-4.026139 -5.541505,0.950442 2.616344,-4.976581 -2.616344,-4.976582 5.541505,0.950443 3.924516,-4.026139 0.8084946,5.563987 z"
            inkscape:transform-center-x="-0.052786855"
            transform="matrix(0.06528974,0,0,0.06209423,104.10597,66.618939)"/>
    <path
            sodipodi:type="star"
            style="fill:#ffd42a;fill-opacity:1;stroke-width:0.264583;paint-order:stroke markers fill"
            id="path2334-7-1-79"
            sodipodi:sides="5"
            sodipodi:cx="-12.699999"
            sodipodi:cy="25.4"
            sodipodi:r1="8.4666662"
            sodipodi:r2="4.2333331"
            sodipodi:arg1="0"
            sodipodi:arg2="0.62831853"
            inkscape:flatsided="false"
            inkscape:rounded="0"
            inkscape:randomized="0"
            d="m -4.2333326,25.4 -5.0418278,2.48829 -0.8084946,5.563988 -3.924516,-4.026139 -5.541505,0.950442 2.616344,-4.976581 -2.616344,-4.976582 5.541505,0.950443 3.924516,-4.026139 0.8084946,5.563987 z"
            inkscape:transform-center-x="-0.052786855"
            transform="matrix(0.06528974,0,0,0.06209423,96.229549,43.723061)"/>
    <path
            sodipodi:type="star"
            style="fill:#ffd42a;fill-opacity:1;stroke-width:0.264583;paint-order:stroke markers fill"
            id="path2334-7-1-94"
            sodipodi:sides="5"
            sodipodi:cx="-12.699999"
            sodipodi:cy="25.4"
            sodipodi:r1="8.4666662"
            sodipodi:r2="4.2333331"
            sodipodi:arg1="0"
            sodipodi:arg2="0.62831853"
            inkscape:flatsided="false"
            inkscape:rounded="0"
            inkscape:randomized="0"
            d="m -4.2333326,25.4 -5.0418278,2.48829 -0.8084946,5.563988 -3.924516,-4.026139 -5.541505,0.950442 2.616344,-4.976581 -2.616344,-4.976582 5.541505,0.950443 3.924516,-4.026139 0.8084946,5.563987 z"
            inkscape:transform-center-x="-0.052786855"
            transform="matrix(0.06528974,0,0,0.06209423,58.763931,66.847905)"/>
    <path
            sodipodi:type="star"
            style="fill:#ffd42a;fill-opacity:1;stroke-width:0.264583;paint-order:stroke markers fill"
            id="path2334-7-1-43"
            sodipodi:sides="5"
            sodipodi:cx="-12.699999"
            sodipodi:cy="25.4"
            sodipodi:r1="8.4666662"
            sodipodi:r2="4.2333331"
            sodipodi:arg1="0"
            sodipodi:arg2="0.62831853"
            inkscape:flatsided="false"
            inkscape:rounded="0"
            inkscape:randomized="0"
            d="m -4.2333326,25.4 -5.0418278,2.48829 -0.8084946,5.563988 -3.924516,-4.026139 -5.541505,0.950442 2.616344,-4.976581 -2.616344,-4.976582 5.541505,0.950443 3.924516,-4.026139 0.8084946,5.563987 z"
            inkscape:transform-center-x="-0.052786855"
            transform="matrix(0.06528974,0,0,0.06209423,92.858545,42.301563)"/>
    <path
            sodipodi:type="star"
            style="fill:#ffd42a;fill-opacity:1;stroke-width:0.264583;paint-order:stroke markers fill"
            id="path2334-7-1-33"
            sodipodi:sides="5"
            sodipodi:cx="-12.699999"
            sodipodi:cy="25.4"
            sodipodi:r1="8.4666662"
            sodipodi:r2="4.2333331"
            sodipodi:arg1="0"
            sodipodi:arg2="0.62831853"
            inkscape:flatsided="false"
            inkscape:rounded="0"
            inkscape:randomized="0"
            d="m -4.2333326,25.4 -5.0418278,2.48829 -0.8084946,5.563988 -3.924516,-4.026139 -5.541505,0.950442 2.616344,-4.976581 -2.616344,-4.976582 5.541505,0.950443 3.924516,-4.026139 0.8084946,5.563987 z"
            inkscape:transform-center-x="-0.052786855"
            transform="matrix(0.06528974,0,0,0.06209423,70.167604,62.727958)"/>
    <path
            sodipodi:type="star"
            style="fill:#ffd42a;fill-opacity:1;stroke-width:0.264583;paint-order:stroke markers fill"
            id="path2334-7-1-39"
            sodipodi:sides="5"
            sodipodi:cx="-12.699999"
            sodipodi:cy="25.4"
            sodipodi:r1="8.4666662"
            sodipodi:r2="4.2333331"
            sodipodi:arg1="0"
            sodipodi:arg2="0.62831853"
            inkscape:flatsided="false"
            inkscape:rounded="0"
            inkscape:randomized="0"
            d="m -4.2333326,25.4 -5.0418278,2.48829 -0.8084946,5.563988 -3.924516,-4.026139 -5.541505,0.950442 2.616344,-4.976581 -2.616344,-4.976582 5.541505,0.950443 3.924516,-4.026139 0.8084946,5.563987 z"
            inkscape:transform-center-x="-0.052786855"
            transform="matrix(0.06528974,0,0,0.06209423,66.292013,72.72158)"/>
    <path
            sodipodi:type="star"
            style="fill:#ffd42a;fill-opacity:1;stroke-width:0.264583;paint-order:stroke markers fill"
            id="path2334-7-1-60"
            sodipodi:sides="5"
            sodipodi:cx="-12.699999"
            sodipodi:cy="25.4"
            sodipodi:r1="8.4666662"
            sodipodi:r2="4.2333331"
            sodipodi:arg1="0"
            sodipodi:arg2="0.62831853"
            inkscape:flatsided="false"
            inkscape:rounded="0"
            inkscape:randomized="0"
            d="m -4.2333326,25.4 -5.0418278,2.48829 -0.8084946,5.563988 -3.924516,-4.026139 -5.541505,0.950442 2.616344,-4.976581 -2.616344,-4.976582 5.541505,0.950443 3.924516,-4.026139 0.8084946,5.563987 z"
            inkscape:transform-center-x="-0.052786855"
            transform="matrix(0.06528974,0,0,0.06209423,108.95106,64.060277)"/>
    <path
            sodipodi:type="star"
            style="fill:#ffd42a;fill-opacity:1;stroke-width:0.264583;paint-order:stroke markers fill"
            id="path2334-7-1-1"
            sodipodi:sides="5"
            sodipodi:cx="-12.699999"
            sodipodi:cy="25.4"
            sodipodi:r1="8.4666662"
            sodipodi:r2="4.2333331"
            sodipodi:arg1="0"
            sodipodi:arg2="0.62831853"
            inkscape:flatsided="false"
            inkscape:rounded="0"
            inkscape:randomized="0"
            d="m -4.2333326,25.4 -5.0418278,2.48829 -0.8084946,5.563988 -3.924516,-4.026139 -5.541505,0.950442 2.616344,-4.976581 -2.616344,-4.976582 5.541505,0.950443 3.924516,-4.026139 0.8084946,5.563987 z"
            inkscape:transform-center-x="-0.052786855"
            transform="matrix(0.06528974,0,0,0.06209423,106.83,57.659349)"/>
    <path
            sodipodi:type="star"
            style="fill:#ffd42a;fill-opacity:1;stroke-width:0.264583;paint-order:stroke markers fill"
            id="path2334-7-1-32"
            sodipodi:sides="5"
            sodipodi:cx="-12.699999"
            sodipodi:cy="25.4"
            sodipodi:r1="8.4666662"
            sodipodi:r2="4.2333331"
            sodipodi:arg1="0"
            sodipodi:arg2="0.62831853"
            inkscape:flatsided="false"
            inkscape:rounded="0"
            inkscape:randomized="0"
            d="m -4.2333326,25.4 -5.0418278,2.48829 -0.8084946,5.563988 -3.924516,-4.026139 -5.541505,0.950442 2.616344,-4.976581 -2.616344,-4.976582 5.541505,0.950443 3.924516,-4.026139 0.8084946,5.563987 z"
            inkscape:transform-center-x="-0.052786855"
            transform="matrix(0.06528974,0,0,0.06209423,77.617086,54.061196)"/>
    <path
            sodipodi:type="star"
            style="fill:#ffd42a;fill-opacity:1;stroke-width:0.264583;paint-order:stroke markers fill"
            id="path2334-7-1-89"
            sodipodi:sides="5"
            sodipodi:cx="-12.699999"
            sodipodi:cy="25.4"
            sodipodi:r1="8.4666662"
            sodipodi:r2="4.2333331"
            sodipodi:arg1="0"
            sodipodi:arg2="0.62831853"
            inkscape:flatsided="false"
            inkscape:rounded="0"
            inkscape:randomized="0"
            d="m -4.2333326,25.4 -5.0418278,2.48829 -0.8084946,5.563988 -3.924516,-4.026139 -5.541505,0.950442 2.616344,-4.976581 -2.616344,-4.976582 5.541505,0.950443 3.924516,-4.026139 0.8084946,5.563987 z"
            inkscape:transform-center-x="-0.052786855"
            transform="matrix(0.06528974,0,0,0.06209423,93.111832,66.758246)"/>
    <path
            sodipodi:type="star"
            style="fill:#ffd42a;fill-opacity:1;stroke-width:0.264583;paint-order:stroke markers fill"
            id="path2334-7-1-44"
            sodipodi:sides="5"
            sodipodi:cx="-12.699999"
            sodipodi:cy="25.4"
            sodipodi:r1="8.4666662"
            sodipodi:r2="4.2333331"
            sodipodi:arg1="0"
            sodipodi:arg2="0.62831853"
            inkscape:flatsided="false"
            inkscape:rounded="0"
            inkscape:randomized="0"
            d="m -4.2333326,25.4 -5.0418278,2.48829 -0.8084946,5.563988 -3.924516,-4.026139 -5.541505,0.950442 2.616344,-4.976581 -2.616344,-4.976582 5.541505,0.950443 3.924516,-4.026139 0.8084946,5.563987 z"
            inkscape:transform-center-x="-0.052786855"
            transform="matrix(0.06528974,0,0,0.06209423,87.257391,66.284288)"/>
    <path
            sodipodi:type="star"
            style="fill:#ffd42a;fill-opacity:1;stroke-width:0.264583;paint-order:stroke markers fill"
            id="path2334-7-1-45"
            sodipodi:sides="5"
            sodipodi:cx="-12.699999"
            sodipodi:cy="25.4"
            sodipodi:r1="8.4666662"
            sodipodi:r2="4.2333331"
            sodipodi:arg1="0"
            sodipodi:arg2="0.62831853"
            inkscape:flatsided="false"
            inkscape:rounded="0"
            inkscape:randomized="0"
            d="m -4.2333326,25.4 -5.0418278,2.48829 -0.8084946,5.563988 -3.924516,-4.026139 -5.541505,0.950442 2.616344,-4.976581 -2.616344,-4.976582 5.541505,0.950443 3.924516,-4.026139 0.8084946,5.563987 z"
            inkscape:transform-center-x="-0.052786855"
            transform="matrix(0.06528974,0,0,0.06209423,77.476385,100.33181)"/>
    <path
            sodipodi:type="star"
            style="fill:#ffd42a;fill-opacity:1;stroke-width:0.264583;paint-order:stroke markers fill"
            id="path2334-7-1-52"
            sodipodi:sides="5"
            sodipodi:cx="-12.699999"
            sodipodi:cy="25.4"
            sodipodi:r1="8.4666662"
            sodipodi:r2="4.2333331"
            sodipodi:arg1="0"
            sodipodi:arg2="0.62831853"
            inkscape:flatsided="false"
            inkscape:rounded="0"
            inkscape:randomized="0"
            d="m -4.2333326,25.4 -5.0418278,2.48829 -0.8084946,5.563988 -3.924516,-4.026139 -5.541505,0.950442 2.616344,-4.976581 -2.616344,-4.976582 5.541505,0.950443 3.924516,-4.026139 0.8084946,5.563987 z"
            inkscape:transform-center-x="-0.052786855"
            transform="matrix(0.06528974,0,0,0.06209423,88.290833,70.438125)"/>
    <path
            sodipodi:type="star"
            style="fill:#ffd42a;fill-opacity:1;stroke-width:0.264583;paint-order:stroke markers fill"
            id="path2334-7-1-49"
            sodipodi:sides="5"
            sodipodi:cx="-12.699999"
            sodipodi:cy="25.4"
            sodipodi:r1="8.4666662"
            sodipodi:r2="4.2333331"
            sodipodi:arg1="0"
            sodipodi:arg2="0.62831853"
            inkscape:flatsided="false"
            inkscape:rounded="0"
            inkscape:randomized="0"
            d="m -4.2333326,25.4 -5.0418278,2.48829 -0.8084946,5.563988 -3.924516,-4.026139 -5.541505,0.950442 2.616344,-4.976581 -2.616344,-4.976582 5.541505,0.950443 3.924516,-4.026139 0.8084946,5.563987 z"
            inkscape:transform-center-x="-0.052786855"
            transform="matrix(0.06528974,0,0,0.06209423,54.891982,61.894993)"/>
    <path
            sodipodi:type="star"
            style="fill:#ffd42a;fill-opacity:1;stroke-width:0.264583;paint-order:stroke markers fill"
            id="path2334-7-1-02"
            sodipodi:sides="5"
            sodipodi:cx="-12.699999"
            sodipodi:cy="25.4"
            sodipodi:r1="8.4666662"
            sodipodi:r2="4.2333331"
            sodipodi:arg1="0"
            sodipodi:arg2="0.62831853"
            inkscape:flatsided="false"
            inkscape:rounded="0"
            inkscape:randomized="0"
            d="m -4.2333326,25.4 -5.0418278,2.48829 -0.8084946,5.563988 -3.924516,-4.026139 -5.541505,0.950442 2.616344,-4.976581 -2.616344,-4.976582 5.541505,0.950443 3.924516,-4.026139 0.8084946,5.563987 z"
            inkscape:transform-center-x="-0.052786855"
            transform="matrix(0.06528974,0,0,0.06209423,77.698518,53.730275)"/>
    <path
            sodipodi:type="star"
            style="fill:#ffd42a;fill-opacity:1;stroke-width:0.264583;paint-order:stroke markers fill"
            id="path2334-7-1-50"
            sodipodi:sides="5"
            sodipodi:cx="-12.699999"
            sodipodi:cy="25.4"
            sodipodi:r1="8.4666662"
            sodipodi:r2="4.2333331"
            sodipodi:arg1="0"
            sodipodi:arg2="0.62831853"
            inkscape:flatsided="false"
            inkscape:rounded="0"
            inkscape:randomized="0"
            d="m -4.2333326,25.4 -5.0418278,2.48829 -0.8084946,5.563988 -3.924516,-4.026139 -5.541505,0.950442 2.616344,-4.976581 -2.616344,-4.976582 5.541505,0.950443 3.924516,-4.026139 0.8084946,5.563987 z"
            inkscape:transform-center-x="-0.052786855"
            transform="matrix(0.06528974,0,0,0.06209423,94.409717,100.33181)"/>
    <path
            sodipodi:type="star"
            style="fill:#ffd42a;fill-opacity:1;stroke-width:0.264583;paint-order:stroke markers fill"
            id="path2334-7-1-14"
            sodipodi:sides="5"
            sodipodi:cx="-12.699999"
            sodipodi:cy="25.4"
            sodipodi:r1="8.4666662"
            sodipodi:r2="4.2333331"
            sodipodi:arg1="0"
            sodipodi:arg2="0.62831853"
            inkscape:flatsided="false"
            inkscape:rounded="0"
            inkscape:randomized="0"
            d="m -4.2333326,25.4 -5.0418278,2.48829 -0.8084946,5.563988 -3.924516,-4.026139 -5.541505,0.950442 2.616344,-4.976581 -2.616344,-4.976582 5.541505,0.950443 3.924516,-4.026139 0.8084946,5.563987 z"
            inkscape:transform-center-x="-0.052786855"
            transform="matrix(0.06528974,0,0,0.06209423,104.69283,52.885524)"/>
    <path
            sodipodi:type="star"
            style="fill:#ffd42a;fill-opacity:1;stroke-width:0.264583;paint-order:stroke markers fill"
            id="path2334-7-1-028"
            sodipodi:sides="5"
            sodipodi:cx="-12.699999"
            sodipodi:cy="25.4"
            sodipodi:r1="8.4666662"
            sodipodi:r2="4.2333331"
            sodipodi:arg1="0"
            sodipodi:arg2="0.62831853"
            inkscape:flatsided="false"
            inkscape:rounded="0"
            inkscape:randomized="0"
            d="m -4.2333326,25.4 -5.0418278,2.48829 -0.8084946,5.563988 -3.924516,-4.026139 -5.541505,0.950442 2.616344,-4.976581 -2.616344,-4.976582 5.541505,0.950443 3.924516,-4.026139 0.8084946,5.563987 z"
            inkscape:transform-center-x="-0.052786855"
            transform="matrix(0.06528974,0,0,0.06209423,85.973183,47.715322)"/>
    <path
            sodipodi:type="star"
            style="fill:#ffd42a;fill-opacity:1;stroke-width:0.264583;paint-order:stroke markers fill"
            id="path2334-7-1-67"
            sodipodi:sides="5"
            sodipodi:cx="-12.699999"
            sodipodi:cy="25.4"
            sodipodi:r1="8.4666662"
            sodipodi:r2="4.2333331"
            sodipodi:arg1="0"
            sodipodi:arg2="0.62831853"
            inkscape:flatsided="false"
            inkscape:rounded="0"
            inkscape:randomized="0"
            d="m -4.2333326,25.4 -5.0418278,2.48829 -0.8084946,5.563988 -3.924516,-4.026139 -5.541505,0.950442 2.616344,-4.976581 -2.616344,-4.976582 5.541505,0.950443 3.924516,-4.026139 0.8084946,5.563987 z"
            inkscape:transform-center-x="-0.052786855"
            transform="matrix(0.06528974,0,0,0.06209423,75.780013,68.410284)"/>
    <path
            sodipodi:type="star"
            style="fill:#ffd42a;fill-opacity:1;stroke-width:0.264583;paint-order:stroke markers fill"
            id="path2334-7-1-31"
            sodipodi:sides="5"
            sodipodi:cx="-12.699999"
            sodipodi:cy="25.4"
            sodipodi:r1="8.4666662"
            sodipodi:r2="4.2333331"
            sodipodi:arg1="0"
            sodipodi:arg2="0.62831853"
            inkscape:flatsided="false"
            inkscape:rounded="0"
            inkscape:randomized="0"
            d="m -4.2333326,25.4 -5.0418278,2.48829 -0.8084946,5.563988 -3.924516,-4.026139 -5.541505,0.950442 2.616344,-4.976581 -2.616344,-4.976582 5.541505,0.950443 3.924516,-4.026139 0.8084946,5.563987 z"
            inkscape:transform-center-x="-0.052786855"
            transform="matrix(0.06528974,0,0,0.06209423,97.537463,60.248999)"/>
    <path
            sodipodi:type="star"
            style="fill:#ffd42a;fill-opacity:1;stroke-width:0.264583;paint-order:stroke markers fill"
            id="path2334-7-1-09"
            sodipodi:sides="5"
            sodipodi:cx="-12.699999"
            sodipodi:cy="25.4"
            sodipodi:r1="8.4666662"
            sodipodi:r2="4.2333331"
            sodipodi:arg1="0"
            sodipodi:arg2="0.62831853"
            inkscape:flatsided="false"
            inkscape:rounded="0"
            inkscape:randomized="0"
            d="m -4.2333326,25.4 -5.0418278,2.48829 -0.8084946,5.563988 -3.924516,-4.026139 -5.541505,0.950442 2.616344,-4.976581 -2.616344,-4.976582 5.541505,0.950443 3.924516,-4.026139 0.8084946,5.563987 z"
            inkscape:transform-center-x="-0.052786855"
            transform="matrix(0.06528974,0,0,0.06209423,64.685789,77.328657)"/>
    <path
            sodipodi:type="star"
            style="fill:#ffd42a;fill-opacity:1;stroke-width:0.264583;paint-order:stroke markers fill"
            id="path2334-7-1-08"
            sodipodi:sides="5"
            sodipodi:cx="-12.699999"
            sodipodi:cy="25.4"
            sodipodi:r1="8.4666662"
            sodipodi:r2="4.2333331"
            sodipodi:arg1="0"
            sodipodi:arg2="0.62831853"
            inkscape:flatsided="false"
            inkscape:rounded="0"
            inkscape:randomized="0"
            d="m -4.2333326,25.4 -5.0418278,2.48829 -0.8084946,5.563988 -3.924516,-4.026139 -5.541505,0.950442 2.616344,-4.976581 -2.616344,-4.976582 5.541505,0.950443 3.924516,-4.026139 0.8084946,5.563987 z"
            inkscape:transform-center-x="-0.052786855"
            transform="matrix(0.06528974,0,0,0.06209423,69.009719,91.865146)"/>
    <path
            sodipodi:type="star"
            style="fill:#ffd42a;fill-opacity:1;stroke-width:0.264583;paint-order:stroke markers fill"
            id="path2334-7-1-92"
            sodipodi:sides="5"
            sodipodi:cx="-12.699999"
            sodipodi:cy="25.4"
            sodipodi:r1="8.4666662"
            sodipodi:r2="4.2333331"
            sodipodi:arg1="0"
            sodipodi:arg2="0.62831853"
            inkscape:flatsided="false"
            inkscape:rounded="0"
            inkscape:randomized="0"
            d="m -4.2333326,25.4 -5.0418278,2.48829 -0.8084946,5.563988 -3.924516,-4.026139 -5.541505,0.950442 2.616344,-4.976581 -2.616344,-4.976582 5.541505,0.950443 3.924516,-4.026139 0.8084946,5.563987 z"
            inkscape:transform-center-x="-0.052786855"
            transform="matrix(0.06528974,0,0,0.06209423,111.34305,91.865146)"/>
  </g>
</svg>
